<svg width="14" height="12" viewBox="0 0 14 12" fill="none" xmlns="http://www.w3.org/2000/svg">
<path d="M0.786959 4.86705L0.765105 4.87198H10.1333L7.18826 1.82614C7.04405 1.67744 6.96494 1.47599 6.96494 1.26457C6.96494 1.05314 7.04405 0.853107 7.18826 0.704051L7.6465 0.230925C7.7906 0.0822215 7.98262 0 8.18738 0C8.39226 0 8.58439 0.0816343 8.72849 0.230338L13.7768 5.43954C13.9215 5.58883 14.0006 5.78769 14 5.99924C14.0006 6.21196 13.9215 6.41093 13.7768 6.55999L8.72849 11.7697C8.58439 11.9182 8.39237 12 8.18738 12C7.98262 12 7.7906 11.9181 7.6465 11.7697L7.18826 11.2965C7.04405 11.1481 6.96494 10.9498 6.96494 10.7384C6.96494 10.5271 7.04405 10.3392 7.18826 10.1907L10.1665 7.12779H0.776487C0.354552 7.12779 0 6.7525 0 6.31732V5.64815C0 5.21296 0.365025 4.86705 0.786959 4.86705Z" fill="white"/>
<path d="M0.786959 4.86705L0.765105 4.87198H10.1333L7.18826 1.82614C7.04405 1.67744 6.96494 1.47599 6.96494 1.26457C6.96494 1.05314 7.04405 0.853107 7.18826 0.704051L7.6465 0.230925C7.7906 0.0822215 7.98262 0 8.18738 0C8.39226 0 8.58439 0.0816343 8.72849 0.230338L13.7768 5.43954C13.9215 5.58883 14.0006 5.78769 14 5.99924C14.0006 6.21196 13.9215 6.41093 13.7768 6.55999L8.72849 11.7697C8.58439 11.9182 8.39237 12 8.18738 12C7.98262 12 7.7906 11.9181 7.6465 11.7697L7.18826 11.2965C7.04405 11.1481 6.96494 10.9498 6.96494 10.7384C6.96494 10.5271 7.04405 10.3392 7.18826 10.1907L10.1665 7.12779H0.776487C0.354552 7.12779 0 6.7525 0 6.31732V5.64815C0 5.21296 0.365025 4.86705 0.786959 4.86705Z" fill="white"/>
<path d="M0.786959 4.86705L0.765105 4.87198H10.1333L7.18826 1.82614C7.04405 1.67744 6.96494 1.47599 6.96494 1.26457C6.96494 1.05314 7.04405 0.853107 7.18826 0.704051L7.6465 0.230925C7.7906 0.0822215 7.98262 0 8.18738 0C8.39226 0 8.58439 0.0816343 8.72849 0.230338L13.7768 5.43954C13.9215 5.58883 14.0006 5.78769 14 5.99924C14.0006 6.21196 13.9215 6.41093 13.7768 6.55999L8.72849 11.7697C8.58439 11.9182 8.39237 12 8.18738 12C7.98262 12 7.7906 11.9181 7.6465 11.7697L7.18826 11.2965C7.04405 11.1481 6.96494 10.9498 6.96494 10.7384C6.96494 10.5271 7.04405 10.3392 7.18826 10.1907L10.1665 7.12779H0.776487C0.354552 7.12779 0 6.7525 0 6.31732V5.64815C0 5.21296 0.365025 4.86705 0.786959 4.86705Z" fill="white"/>
<path d="M0.786959 4.86705L0.765105 4.87198H10.1333L7.18826 1.82614C7.04405 1.67744 6.96494 1.47599 6.96494 1.26457C6.96494 1.05314 7.04405 0.853107 7.18826 0.704051L7.6465 0.230925C7.7906 0.0822215 7.98262 0 8.18738 0C8.39226 0 8.58439 0.0816343 8.72849 0.230338L13.7768 5.43954C13.9215 5.58883 14.0006 5.78769 14 5.99924C14.0006 6.21196 13.9215 6.41093 13.7768 6.55999L8.72849 11.7697C8.58439 11.9182 8.39237 12 8.18738 12C7.98262 12 7.7906 11.9181 7.6465 11.7697L7.18826 11.2965C7.04405 11.1481 6.96494 10.9498 6.96494 10.7384C6.96494 10.5271 7.04405 10.3392 7.18826 10.1907L10.1665 7.12779H0.776487C0.354552 7.12779 0 6.7525 0 6.31732V5.64815C0 5.21296 0.365025 4.86705 0.786959 4.86705Z" fill="white"/>
</svg>
