<svg width="14" height="12" viewBox="0 0 14 12" fill="none" xmlns="http://www.w3.org/2000/svg">
<path d="M13.213 4.86705L13.2349 4.87198H3.86673L6.81174 1.82614C6.95595 1.67744 7.03506 1.47599 7.03506 1.26457C7.03506 1.05314 6.95595 0.853107 6.81174 0.704051L6.3535 0.230925C6.2094 0.0822215 6.01738 0 5.81262 0C5.60774 0 5.41561 0.0816343 5.27151 0.230338L0.223206 5.43954C0.0785396 5.58883 -0.000566056 5.78769 3.04942e-06 5.99924C-0.000566056 6.21196 0.0785396 6.41093 0.223206 6.55999L5.27151 11.7697C5.41561 11.9182 5.60763 12 5.81262 12C6.01738 12 6.2094 11.9181 6.3535 11.7697L6.81174 11.2965C6.95595 11.1481 7.03506 10.9498 7.03506 10.7384C7.03506 10.5271 6.95595 10.3392 6.81174 10.1907L3.8335 7.12779H13.2235C13.6454 7.12779 14 6.7525 14 6.31732V5.64815C14 5.21296 13.635 4.86705 13.213 4.86705Z" fill="white"/>
<path d="M13.213 4.86705L13.2349 4.87198H3.86673L6.81174 1.82614C6.95595 1.67744 7.03506 1.47599 7.03506 1.26457C7.03506 1.05314 6.95595 0.853107 6.81174 0.704051L6.3535 0.230925C6.2094 0.0822215 6.01738 0 5.81262 0C5.60774 0 5.41561 0.0816343 5.27151 0.230338L0.223206 5.43954C0.0785396 5.58883 -0.000566056 5.78769 3.04942e-06 5.99924C-0.000566056 6.21196 0.0785396 6.41093 0.223206 6.55999L5.27151 11.7697C5.41561 11.9182 5.60763 12 5.81262 12C6.01738 12 6.2094 11.9181 6.3535 11.7697L6.81174 11.2965C6.95595 11.1481 7.03506 10.9498 7.03506 10.7384C7.03506 10.5271 6.95595 10.3392 6.81174 10.1907L3.8335 7.12779H13.2235C13.6454 7.12779 14 6.7525 14 6.31732V5.64815C14 5.21296 13.635 4.86705 13.213 4.86705Z" fill="white"/>
<path d="M13.213 4.86705L13.2349 4.87198H3.86673L6.81174 1.82614C6.95595 1.67744 7.03506 1.47599 7.03506 1.26457C7.03506 1.05314 6.95595 0.853107 6.81174 0.704051L6.3535 0.230925C6.2094 0.0822215 6.01738 0 5.81262 0C5.60774 0 5.41561 0.0816343 5.27151 0.230338L0.223206 5.43954C0.0785396 5.58883 -0.000566056 5.78769 3.04942e-06 5.99924C-0.000566056 6.21196 0.0785396 6.41093 0.223206 6.55999L5.27151 11.7697C5.41561 11.9182 5.60763 12 5.81262 12C6.01738 12 6.2094 11.9181 6.3535 11.7697L6.81174 11.2965C6.95595 11.1481 7.03506 10.9498 7.03506 10.7384C7.03506 10.5271 6.95595 10.3392 6.81174 10.1907L3.8335 7.12779H13.2235C13.6454 7.12779 14 6.7525 14 6.31732V5.64815C14 5.21296 13.635 4.86705 13.213 4.86705Z" fill="white"/>
<path d="M13.213 4.86705L13.2349 4.87198H3.86673L6.81174 1.82614C6.95595 1.67744 7.03506 1.47599 7.03506 1.26457C7.03506 1.05314 6.95595 0.853107 6.81174 0.704051L6.3535 0.230925C6.2094 0.0822215 6.01738 0 5.81262 0C5.60774 0 5.41561 0.0816343 5.27151 0.230338L0.223206 5.43954C0.0785396 5.58883 -0.000566056 5.78769 3.04942e-06 5.99924C-0.000566056 6.21196 0.0785396 6.41093 0.223206 6.55999L5.27151 11.7697C5.41561 11.9182 5.60763 12 5.81262 12C6.01738 12 6.2094 11.9181 6.3535 11.7697L6.81174 11.2965C6.95595 11.1481 7.03506 10.9498 7.03506 10.7384C7.03506 10.5271 6.95595 10.3392 6.81174 10.1907L3.8335 7.12779H13.2235C13.6454 7.12779 14 6.7525 14 6.31732V5.64815C14 5.21296 13.635 4.86705 13.213 4.86705Z" fill="white"/>
</svg>
