<svg width="22" height="24" viewBox="0 0 22 24" fill="none" xmlns="http://www.w3.org/2000/svg">
<path fill-rule="evenodd" clip-rule="evenodd" d="M16.2502 10.5C16.5442 10.5 16.8112 10.671 16.9327 10.9395C17.0542 11.208 17.0092 11.523 16.8142 11.7435L11.5641 17.7435C11.4216 17.9055 11.2161 18 11.0001 18C10.7841 18 10.5786 17.907 10.4361 17.7435L5.18609 11.7435C4.99259 11.5215 4.94459 11.208 5.06759 10.9395C5.18909 10.6725 5.45609 10.5 5.75009 10.5H8.75011V0.75C8.75011 0.336 9.08612 0 9.50012 0H12.5001C12.9141 0 13.2501 0.336 13.2501 0.75V10.5H16.2502ZM19.0667 20.8V16.4H22V22.2667C22 23.0777 21.3444 23.7333 20.5333 23.7333H1.46667C0.657067 23.7333 0 23.0777 0 22.2667V16.4H2.93333V20.8H19.0667Z" fill="white"/>
</svg>
