<svg width="15" height="11" viewBox="0 0 15 11" fill="none" xmlns="http://www.w3.org/2000/svg">
<path fill-rule="evenodd" clip-rule="evenodd" d="M14.0625 0H0.937498C0.469685 0 0.0984354 0.372 0.0281229 0.851L7.5 6.102L14.9719 0.851C14.9016 0.372 14.5303 0 14.0625 0ZM0 8.99202V2.02803L5.05688 5.58202L0 8.99202ZM15 8.99202L9.94312 5.58202L15 2.02803V8.99202ZM7.75781 7.118L9.08438 6.186L14.97 10.156C14.8978 10.631 14.5284 11 14.0625 11H0.937499C0.471561 11 0.102186 10.631 0.0299988 10.156L5.91562 6.185L7.24219 7.118C7.32094 7.173 7.41 7.2 7.5 7.2C7.59 7.2 7.67906 7.173 7.75781 7.118Z" fill="white"/>
</svg>
