<svg width="11" height="20" viewBox="0 0 11 20" fill="none" xmlns="http://www.w3.org/2000/svg">
<path d="M7.8002 5.66593C7.8262 5.63665 7.94777 5.54098 8.42518 5.54098L9.99045 5.5404C10.4997 5.5404 10.9138 5.12698 10.9138 4.61875V1.88831C10.9138 1.38095 10.5003 0.967529 9.99191 0.96666L7.66687 0.962891C6.23188 0.962891 5.01199 1.43531 4.13908 2.32927C3.2701 3.21917 2.8107 4.46147 2.8107 5.92164V7.39428H1.03206C0.522843 7.39428 0.108612 7.8077 0.108612 8.31593V11.2566C0.108612 11.7648 0.522843 12.1782 1.03206 12.1782H2.8107V19.0413C2.8107 19.5495 3.22493 19.9629 3.73415 19.9629H6.78278C7.292 19.9629 7.70623 19.5495 7.70623 19.0413V12.1784H9.88036C10.3896 12.1784 10.8037 11.7648 10.8037 11.2568L10.8048 8.31607C10.8048 7.98223 10.6228 7.67332 10.3297 7.50995C10.1939 7.43429 10.0359 7.39428 9.87295 7.39428H7.70623V6.23084C7.70623 5.85163 7.75736 5.71435 7.8002 5.66593Z" fill="white"/>
</svg>
