<svg width="19" height="20" viewBox="0 0 19 20" fill="none" xmlns="http://www.w3.org/2000/svg">
<path d="M9.687 19.0375C9.62408 19.0375 9.56117 19.0375 9.49783 19.0373C8.00852 19.0409 6.63243 19.003 5.29417 18.9216C4.06725 18.8469 2.9473 18.4229 2.05522 17.6955C1.19446 16.9936 0.606651 16.0446 0.308182 14.8751C0.0484162 13.8569 0.0346451 12.8574 0.0214539 11.8907C0.0118866 11.197 0.00202942 10.3751 0 9.53928C0.00202942 8.69998 0.0118866 7.87806 0.0214539 7.18443C0.0346451 6.21785 0.0484162 5.21836 0.308182 4.20003C0.606651 3.0305 1.19446 2.08146 2.05522 1.37957C2.9473 0.652168 4.06725 0.228165 5.29432 0.153511C6.63258 0.0721894 8.00896 0.0342103 9.50145 0.0378343C10.9912 0.0346452 12.3668 0.0721894 13.7051 0.153511C14.932 0.228165 16.052 0.652168 16.9441 1.37957C17.805 2.08146 18.3926 3.0305 18.6911 4.20003C18.9509 5.21822 18.9646 6.21785 18.9778 7.18443C18.9874 7.87806 18.9974 8.69998 18.9993 9.53581V9.53928C18.9974 10.3751 18.9874 11.197 18.9778 11.8907C18.9646 12.8572 18.951 13.8567 18.6911 14.8751C18.3926 16.0446 17.805 16.9936 16.9441 17.6955C16.052 18.4229 14.932 18.8469 13.7051 18.9216C12.4235 18.9996 11.107 19.0375 9.687 19.0375ZM9.49783 17.5529C10.9629 17.5564 12.3081 17.5194 13.6149 17.44C14.5427 17.3836 15.347 17.0825 16.006 16.5451C16.6151 16.0484 17.0347 15.363 17.2528 14.508C17.4691 13.6605 17.4816 12.7504 17.4936 11.8704C17.503 11.1814 17.5129 10.3653 17.5149 9.53755C17.5129 8.70969 17.503 7.89372 17.4936 7.20473C17.4816 6.32469 17.4691 5.41464 17.2528 4.56692C17.0347 3.71195 16.6151 3.02659 16.006 2.52982C15.347 1.9926 14.5427 1.69152 13.6149 1.63513C12.3081 1.55555 10.9629 1.51888 9.5013 1.52206C8.0365 1.51859 6.69114 1.55555 5.38434 1.63513C4.4566 1.69152 3.65223 1.9926 2.99325 2.52982C2.38413 3.02659 1.96462 3.71195 1.74646 4.56692C1.53018 5.41464 1.51772 6.32454 1.50568 7.20473C1.49626 7.8943 1.4864 8.71085 1.48438 9.53928C1.4864 10.3641 1.49626 11.1808 1.50568 11.8704C1.51772 12.7504 1.53018 13.6605 1.74646 14.508C1.96462 15.363 2.38413 16.0484 2.99325 16.5451C3.65223 17.0823 4.4566 17.3834 5.38434 17.4398C6.69114 17.5194 8.03679 17.5565 9.49783 17.5529ZM9.46246 14.1762C6.90481 14.1762 4.82378 12.0953 4.82378 9.53755C4.82378 6.97975 6.90481 4.89887 9.46246 4.89887C12.0202 4.89887 14.1011 6.97975 14.1011 9.53755C14.1011 12.0953 12.0202 14.1762 9.46246 14.1762ZM9.46246 6.38325C7.72324 6.38325 6.30816 7.79833 6.30816 9.53755C6.30816 11.2768 7.72324 12.6918 9.46246 12.6918C11.2018 12.6918 12.6168 11.2768 12.6168 9.53755C12.6168 7.79833 11.2018 6.38325 9.46246 6.38325ZM14.6207 3.4145C14.0059 3.4145 13.5074 3.91287 13.5074 4.52778C13.5074 5.14269 14.0059 5.64106 14.6207 5.64106C15.2356 5.64106 15.7339 5.14269 15.7339 4.52778C15.7339 3.91287 15.2356 3.4145 14.6207 3.4145Z" fill="white"/>
</svg>
