<svg width="12" height="18" viewBox="0 0 12 18" fill="none" xmlns="http://www.w3.org/2000/svg">
<path d="M6 0C2.69166 0 0 2.68444 0 5.9839C0 6.9744 0.248308 7.95648 0.72035 8.82755L5.67189 17.7588C5.73781 17.8779 5.86342 17.9517 6 17.9517C6.13658 17.9517 6.2622 17.8779 6.32811 17.7588L11.2815 8.82461C11.7517 7.95648 12 6.97436 12 5.98386C12 2.68444 9.30834 0 6 0ZM6 8.97583C4.34583 8.97583 3.00002 7.63363 3.00002 5.9839C3.00002 4.33417 4.34583 2.99197 6 2.99197C7.65417 2.99197 8.99998 4.33417 8.99998 5.9839C8.99998 7.63363 7.65417 8.97583 6 8.97583Z" fill="white"/>
</svg>
